<svg xmlns="http://www.w3.org/2000/svg" width="1536" height="1024" viewBox="0 0 1536 1024">
<defs><linearGradient id="hero" x1="0" y1="0" x2="1" y2="0"><stop offset="0" stop-color="#123B66"/><stop offset="1" stop-color="#1677F2"/></linearGradient></defs>
<rect x="0" y="0" width="1536" height="1024" rx="0" fill="#F4F7FB" opacity="1"/>
<rect x="0" y="0" width="1536" height="92" rx="0" fill="url(#hero)" opacity="1"/>
<text x="42" y="40" font-family="Segoe UI, Arial" font-size="28" font-weight="850" fill="#fff" text-anchor="start">VCA y Autosuficiencia</text>
<text x="42" y="68" font-family="Segoe UI, Arial" font-size="12" font-weight="500" fill="#DBEAFE" text-anchor="start">Participantes VCA con asistencia y análisis operacional</text>
<rect x="1322" y="28" width="160" height="38" rx="19" fill="rgba(255,255,255,.16)" stroke="rgba(255,255,255,.35)" stroke-width="1" opacity="1"/>
<text x="1402" y="52" font-family="Segoe UI, Arial" font-size="12" font-weight="800" fill="#fff" text-anchor="middle">VCA</text>
<rect x="535" y="112" width="190" height="58" rx="13" fill="#fff" stroke="#D9E2EF" stroke-width="1" opacity="1"/>
<text x="549" y="135" font-family="Segoe UI, Arial" font-size="10" font-weight="800" fill="#64748B" text-anchor="start">PROPUESTA</text>
<rect x="745" y="112" width="190" height="58" rx="13" fill="#fff" stroke="#D9E2EF" stroke-width="1" opacity="1"/>
<text x="759" y="135" font-family="Segoe UI, Arial" font-size="10" font-weight="800" fill="#64748B" text-anchor="start">PERÍODO</text>
<rect x="955" y="112" width="190" height="58" rx="13" fill="#fff" stroke="#D9E2EF" stroke-width="1" opacity="1"/>
<text x="969" y="135" font-family="Segoe UI, Arial" font-size="10" font-weight="800" fill="#64748B" text-anchor="start">RESIDENCIAL</text>
<rect x="42" y="188" width="250" height="70" rx="15" fill="#fff" stroke="#D9E2EF" stroke-width="1" opacity="1"/>
<rect x="42" y="188" width="6" height="70" rx="3" fill="#1677F2" stroke="#1677F2" stroke-width="0" opacity="1"/>
<text x="58" y="212" font-family="Segoe UI, Arial" font-size="10" font-weight="800" fill="#64748B" text-anchor="start">PERSONAS VCA</text>
<rect x="312" y="188" width="250" height="70" rx="15" fill="#fff" stroke="#D9E2EF" stroke-width="1" opacity="1"/>
<rect x="312" y="188" width="6" height="70" rx="3" fill="#123B66" stroke="#123B66" stroke-width="0" opacity="1"/>
<text x="328" y="212" font-family="Segoe UI, Arial" font-size="10" font-weight="800" fill="#64748B" text-anchor="start">PARTICIPACIONES VCA</text>
<rect x="582" y="188" width="250" height="70" rx="15" fill="#fff" stroke="#D9E2EF" stroke-width="1" opacity="1"/>
<rect x="582" y="188" width="6" height="70" rx="3" fill="#F59E0B" stroke="#F59E0B" stroke-width="0" opacity="1"/>
<text x="598" y="212" font-family="Segoe UI, Arial" font-size="10" font-weight="800" fill="#64748B" text-anchor="start">VCA FEMENINO</text>
<rect x="852" y="188" width="250" height="70" rx="15" fill="#fff" stroke="#D9E2EF" stroke-width="1" opacity="1"/>
<rect x="852" y="188" width="6" height="70" rx="3" fill="#16885A" stroke="#16885A" stroke-width="0" opacity="1"/>
<text x="868" y="212" font-family="Segoe UI, Arial" font-size="10" font-weight="800" fill="#64748B" text-anchor="start">VCA MASCULINO</text>
<rect x="42" y="285" width="700" height="38" rx="10" fill="#fff" stroke="#D9E2EF" stroke-width="1" opacity="1"/><rect x="42" y="285" width="6" height="38" rx="3" fill="#1677F2" stroke="#1677F2" stroke-width="0" opacity="1"/><text x="60" y="309" font-family="Segoe UI, Arial" font-size="15" font-weight="800" fill="#0F172A" text-anchor="start">Tendencia VCA</text>
<rect x="790" y="285" width="700" height="38" rx="10" fill="#fff" stroke="#D9E2EF" stroke-width="1" opacity="1"/><rect x="790" y="285" width="6" height="38" rx="3" fill="#16885A" stroke="#16885A" stroke-width="0" opacity="1"/><text x="808" y="309" font-family="Segoe UI, Arial" font-size="15" font-weight="800" fill="#0F172A" text-anchor="start">VCA por residencial</text>
<rect x="42" y="650" width="700" height="38" rx="10" fill="#fff" stroke="#D9E2EF" stroke-width="1" opacity="1"/><rect x="42" y="650" width="6" height="38" rx="3" fill="#F59E0B" stroke="#F59E0B" stroke-width="0" opacity="1"/><text x="60" y="674" font-family="Segoe UI, Arial" font-size="15" font-weight="800" fill="#0F172A" text-anchor="start">VCA por edad y género</text>
<rect x="790" y="650" width="700" height="38" rx="10" fill="#fff" stroke="#D9E2EF" stroke-width="1" opacity="1"/><rect x="790" y="650" width="6" height="38" rx="3" fill="#123B66" stroke="#123B66" stroke-width="0" opacity="1"/><text x="808" y="674" font-family="Segoe UI, Arial" font-size="15" font-weight="800" fill="#0F172A" text-anchor="start">Detalle participantes VCA</text>
</svg>